<?xml version="1.0" encoding="UTF-8"?>
<!-- Generator: Adobe Illustrator 19.0.0, SVG Export Plug-In . SVG Version: 6.00 Build 0)  -->
<svg version="1.1" id="OBJECTS" xmlns="http://www.w3.org/2000/svg" xmlns:xlink="http://www.w3.org/1999/xlink" x="0px" y="0px" viewBox="-229 98 500 365" style="enable-background:new -229 98 500 365;" xml:space="preserve">
<style type="text/css">
	.st0{fill:#1F2E3C;}
	.st1{fill:#5C7387;}
	.st2{fill:#FFFFFF;}
	.st3{fill:#F7E274;}
	.st4{fill:#32495B;}
	.st5{fill:none;stroke:#F7E274;stroke-width:4;stroke-miterlimit:10;}
	.st6{fill:#EA246A;}
	.st7{fill:#FEFCF5;}
	.st8{font-family:'ArialMT';}
	.st9{font-size:59.3647px;}
</style>
<g>
	<g>
		<path class="st0" d="M135.2,336.6H-94.4l28.6-132c2.5-11.4,12.7-19.6,24.4-19.6H82.3c11.6,0,21.9,8.3,24.4,19.6L135.2,336.6z     M-73.3,319.6h187.4L90,208.1c-0.8-3.6-4-6.2-7.7-6.2H-41.4c-3.7,0-7,2.6-7.7,6.2L-73.3,319.6z"/>
	</g>
	<g>
		<polygon class="st1" points="-77.4,258.3 -90.3,317.5 -72.9,317.5 -60,258.3   "/>
		<polygon class="st1" points="118.2,258.3 100.8,258.3 113.7,317.5 131.1,317.5   "/>
	</g>
	<g>
		<path class="st0" d="M84.2,283.8H-89.7c-9,0-15.8,8.2-14.2,17.1l18.2,98.3c1.3,6.8,7.2,11.8,14.2,11.8H65.9c7,0,12.9-5,14.2-11.8    l18.2-98.3C100,292,93.2,283.8,84.2,283.8z"/>
		<path class="st2" d="M132.5,283.8H-41.4c-9,0-15.8,8.2-14.2,17.1l18.2,98.3c1.3,6.8,7.2,11.8,14.2,11.8h137.4    c7,0,12.9-5,14.2-11.8l18.2-98.3C148.3,292,141.5,283.8,132.5,283.8z"/>
		<path class="st1" d="M136.7,283.8H-37.2c-9,0-15.8,8.2-14.2,17.1l18.2,98.3C-31.9,406-26,411-19,411h137.4c7,0,12.9-5,14.2-11.8    l18.2-98.3C152.5,292,145.7,283.8,136.7,283.8z"/>
		<g>
			<path class="st3" d="M-5.1,395.6L-5.1,395.6c-5.4,0-10.5-4.6-11.3-10.4l-8.7-60.2c-1.1-7.6,3.2-14,9.7-14l0,0     c6.4,0,12.3,6.4,13.1,14l6,60.2C4.3,391,0.3,395.6-5.1,395.6z"/>
			<path class="st3" d="M31.4,395.6L31.4,395.6c-5.4,0-10.1-4.6-10.5-10.4L17.1,325c-0.5-7.6,4.4-14,10.8-14l0,0     c6.4,0,11.8,6.4,11.9,14l1.1,60.2C41.2,391,36.9,395.6,31.4,395.6z"/>
			<path class="st3" d="M68,395.6L68,395.6c-5.4,0-9.7-4.6-9.6-10.4l1.1-60.2c0.1-7.6,5.5-14,11.9-14l0,0c6.4,0,11.3,6.4,10.8,14     l-3.8,60.2C78.1,391,73.4,395.6,68,395.6z"/>
			<path class="st3" d="M104.5,395.6L104.5,395.6c-5.4,0-9.4-4.6-8.8-10.4l6-60.2c0.8-7.6,6.6-14,13.1-14l0,0c6.4,0,10.8,6.4,9.7,14     l-8.7,60.2C115,391,109.9,395.6,104.5,395.6z"/>
		</g>
		<rect x="-123.8" y="271.8" class="st1" width="284.9" height="25.5"/>
		<rect x="-119" y="275.6" class="st0" width="280.1" height="21.6"/>
		<rect x="-37.2" y="275.6" class="st4" width="198.3" height="21.6"/>
	</g>
	<circle class="st3" cx="-74" cy="319.8" r="6.8"/>
</g>
<g>
	<path class="st3" d="M145.1,178.6c-11.3,0-20.4,9.1-20.4,20.4c0-11.3-9.1-20.4-20.4-20.4c11.3,0,20.4-9.1,20.4-20.4   C124.7,169.4,133.8,178.6,145.1,178.6z"/>
	<path class="st3" d="M82.8,227.3c-7.7,0-14,6.3-14,14c0-7.7-6.3-14-14-14c7.7,0,14-6.3,14-14C68.8,221,75.1,227.3,82.8,227.3z"/>
	<path class="st3" d="M158.1,241.3c-7.7,0-14,6.3-14,14c0-7.7-6.3-14-14-14c7.7,0,14-6.3,14-14C144.1,235,150.4,241.3,158.1,241.3z"/>
</g>
<circle class="st5" cx="-29.3" cy="129.5" r="7.5"/>
<circle class="st5" cx="188.6" cy="194" r="7.5"/>
<circle class="st5" cx="-158.4" cy="258.3" r="7.5"/>
<polygon class="st3" points="-145.7,156.4 -154.2,171.2 -137.2,171.2 "/>
<polygon class="st3" points="98.6,122.1 90.1,136.8 107.1,136.8 "/>
<polygon class="st5" points="225,247.8 216.4,262.7 233.6,262.7 "/>
<rect x="-122.4" y="207.3" class="st3" width="12.1" height="12.1"/>
<rect x="43.2" y="146.1" class="st3" width="12.1" height="12.1"/>
<g>
	<g>
		<polygon class="st6" points="-135.1,402.4 -169.5,384.3 -142.4,332.9 -114.8,322 -108.1,350.9   "/>
		<g>
			<path class="st2" d="M-142.1,378.8l-1.8,3.5l-2.8-1.5l1.8-3.5c-4.3-2.7-6.5-6.8-5.9-11.3l7.2-0.3c-0.2,2.4,0.4,4.1,2,5.3l2.9-5.5     c-0.1-0.2-0.3-0.3-0.4-0.5c-2.7-3.2-5.8-7.3-3-12.7c2.7-5.2,8-5.8,12.5-4l1.8-3.5l2.8,1.5l-2,3.7c3.2,2.2,5.1,5.6,4.8,9.9l-7,0.3     c0.2-1.7-0.2-2.9-1.1-3.9l-2.8,5.4c2.7,3.3,6.7,7.1,3.6,12.9C-132.1,379.5-137.1,380.7-142.1,378.8z M-135.2,358.9l2.2-4.2     c-1.3-0.3-2.3,0.1-2.8,1.1C-136.2,356.5-136.2,357.4-135.2,358.9z M-135.9,371.3c0.5-1,0.2-1.9-0.6-3.1l-2.2,4.3     C-137.3,372.8-136.4,372.1-135.9,371.3z"/>
		</g>
		<circle class="st7" cx="-122.1" cy="335.9" r="4.4"/>
	</g>
	<path class="st3" d="M-84.5,275.6l-40.1,58.5c-0.9,1.4-0.6,3.2,0.8,4.2c0.5,0.4,1.1,0.5,1.7,0.5c1,0,1.9-0.5,2.5-1.3l41.2-60.2   c0.4-0.5,0.5-1.1,0.5-1.7H-84.5z"/>
</g>
<g>
	<g>
		<g>
			<polygon class="st6" points="51.3,342.5 28.9,359.7 3.2,326.2 4.4,304.6 25.6,309    "/>
			<g>
				<path class="st2" d="M33.6,340l1.8,2.3l-1.8,1.4l-1.7-2.3c-3.1,2-6.4,2.2-9.3,0.4l2-4.8c1.5,0.8,2.8,1,4.1,0.3l-2.7-3.6      c-0.1,0-0.3,0.1-0.4,0.1c-3,0.8-6.6,1.6-9.3-1.8c-2.6-3.4-1.4-7.1,1.2-9.4l-1.7-2.3l1.8-1.4l1.8,2.3c2.4-1.4,5.2-1.7,8-0.2      l-1.9,4.7c-1-0.6-2-0.8-2.9-0.5l2.7,3.5c3-0.8,6.7-2.3,9.6,1.5C37.1,333.6,36.4,337.2,33.6,340z M22.5,329.4l-2.1-2.7      c-0.6,0.8-0.6,1.6-0.1,2.2C20.7,329.3,21.2,329.6,22.5,329.4z M30.5,333.6c-0.5-0.6-1.2-0.7-2.3-0.5l2.1,2.8      C31.1,334.9,31,334.1,30.5,333.6z"/>
			</g>
			<circle class="st7" cx="11.4" cy="313.7" r="3.2"/>
		</g>
		<path class="st3" d="M13.2,312.6l-22.1-36.9H-14l23.4,39.1c0.6,1,2,1.4,3,0.8c0.4-0.2,0.7-0.6,0.9-1    C13.6,314,13.6,313.2,13.2,312.6z"/>
	</g>
</g>
<g>
	<g>
		<polygon class="st6" points="195.9,417.3 148.9,431 128.3,360.6 143.8,326.4 175.3,346.8   "/>
		<g>
			<path class="st2" d="M168.8,402l1.4,4.8l-3.8,1.1l-1.4-4.8c-6.3,1.4-11.8-0.4-15.3-5.1l6.3-6.6c1.9,2.3,3.9,3.4,6.5,3l-2.2-7.6     c-0.3-0.1-0.5,0-0.8-0.1c-5.3-0.5-11.7-1.6-13.9-8.9c-2.1-7.1,2.2-12.3,7.8-14.5l-1.4-4.8l3.8-1.1l1.4,4.9     c4.9-0.8,9.6,0.6,13,4.8l-6.1,6.4c-1.3-1.7-2.7-2.4-4.4-2.5l2.2,7.4c5.3,0.6,12.3,0.5,14.6,8.5C178.6,393.9,175,399.3,168.8,402z      M157.6,377.9l-1.7-5.7c-1.5,0.9-2,2.1-1.6,3.4C154.6,376.6,155.4,377.3,157.6,377.9z M167.9,389.7c-0.4-1.4-1.5-1.9-3.3-2.3     l1.7,5.8C168,392.2,168.3,390.8,167.9,389.7z"/>
		</g>
		<circle class="st7" cx="149.3" cy="345.4" r="5.6"/>
	</g>
	<path class="st3" d="M141.3,275.6h-8.8l12.3,72c0.4,2.4,2.7,4,5,3.6c0.9-0.2,1.7-0.6,2.3-1.2c1-1,1.5-2.4,1.3-3.9L141.3,275.6z"/>
</g>
<g>
	<text transform="matrix(1 0 0 1 -104.9995 183.2539)" class="st6 st8 st9">$</text>
</g>
</svg>