<svg xmlns="http://www.w3.org/2000/svg" width="1920" height="107"><path fill-rule="evenodd" clip-rule="evenodd" fill="#888" d="M219.642 15.028l.088.579 3.28-.502-.088-.578-3.28.501zm10.379 1.085l3.103 1.177.208-.548-3.102-1.177-.209.548zm9.514 5.453l2.467 2.219.392-.435-2.467-2.219-.392.435zm8.908 8.622l2.321 2.371.418-.409-2.321-2.371-.418.409zm9.126 9.131l2.429 2.261.399-.429-2.429-2.26-.399.428zm10.142 8.636l2.725 1.895.334-.48-2.724-1.895-.335.48zm12.231 6.82l3.162 1.006.177-.558-3.162-1.006-.177.558zm14.544 1.259l.105.576 3.264-.595-.105-.575-3.264.594zm13.104-4.221l.266.522 2.957-1.504-.266-.522-2.957 1.504zm11.373-6.486l.317.492 2.788-1.799-.317-.491-2.788 1.798zm10.641-7.025l.324.487 2.764-1.836-.324-.488-2.764 1.837zm10.505-6.786l.299.503 2.851-1.698-.299-.502-2.851 1.697zm10.731-5.878l.238.534 3.029-1.354-.238-.535-3.029 1.355zm11.136-4.128l.125.572 3.242-.706-.125-.571-3.242.705zm10.965-.758l3.263.603.106-.576-3.264-.602-.105.575zm10.487 3.692l2.877 1.653.291-.507-2.877-1.654-.291.508zm10.219 6.6l2.668 1.973.349-.471-2.668-1.973-.349.471zm9.957 7.644l2.593 2.07.365-.457-2.593-2.07-.365.457zm9.932 7.935l2.61 2.049.361-.461-2.61-2.048-.361.46zm10.305 7.829l2.716 1.904.337-.479-2.717-1.905-.336.48zm11.149 7.178l2.936 1.545.273-.518-2.937-1.545-.272.518zm12.923 5.324l3.259.622.11-.574-3.26-.623-.109.575zm14.052-.137l.085.579 3.282-.482-.085-.579-3.282.482zm13.046-2.911l.188.554 3.142-1.068-.188-.555-3.142 1.069zm12.232-4.836l.252.528 2.996-1.426-.252-.528-2.996 1.426zm11.528-5.86l.282.513 2.906-1.601-.282-.513-2.906 1.601zm11.108-6.24l.289.509 2.885-1.64-.289-.509-2.885 1.64zm10.99-6.147l.275.517 2.929-1.56-.275-.517-2.929 1.56zm11.097-5.61l.239.534 3.027-1.359-.24-.533-3.026 1.358zm11.371-4.621l.181.557 3.156-1.022-.181-.557-3.156 1.022zm11.696-3.147l.096.577 3.273-.546-.097-.577-3.272.546zm11.866-.685l3.317.091.016-.585-3.316-.091-.017.585zm11.71 1.177l3.232.748.132-.57-3.232-.747-.132.569zm11.623 3.371l3.102 1.179.207-.547-3.102-1.179-.207.547zm11.363 4.77l2.991 1.437.254-.528-2.991-1.436-.254.527zm11.114 5.624l2.915 1.586.279-.514-2.914-1.586-.28.514zm10.97 6.139l2.869 1.666.294-.506-2.869-1.666-.294.506zm10.905 6.403l2.854 1.693.299-.503-2.854-1.693-.299.503zm10.952 6.484l2.864 1.675.295-.506-2.864-1.674-.295.505zm11.106 6.388l2.902 1.608.284-.512-2.902-1.609-.284.513zm11.359 6.093l2.967 1.485.262-.522-2.967-1.486-.262.523zm11.736 5.555l3.059 1.287.227-.54-3.058-1.286-.228.539zm12.287 4.685l3.171.977.173-.56-3.171-.977-.173.56zm12.926 3.275l3.279.505.089-.578-3.279-.505-.089.578zm13.48.498l.025.585 3.314-.144-.025-.584-3.314.143zm13.27-1.461l.124.572 3.242-.703-.124-.572-3.242.703zm12.746-3.49l.2.55 3.118-1.133-.2-.55-3.118 1.133zm12.105-4.949l.254.527 2.991-1.435-.253-.527-2.992 1.435zm11.519-5.914l.288.51 2.89-1.632-.288-.51-2.89 1.632zm11.084-6.513l.308.498 2.82-1.75-.309-.497-2.819 1.749zm10.802-6.836l.317.491 2.785-1.804-.318-.491-2.784 1.804zm10.643-6.919l.318.491 2.785-1.805-.318-.491-2.785 1.805zm10.618-6.798l.309.497 2.818-1.751-.309-.497-2.818 1.751zm10.756-6.492l.289.509 2.886-1.638-.289-.51-2.886 1.639zm10.944-5.914l.257.526 2.982-1.454-.257-.526-2.982 1.454zm11.26-5.073l.209.548 3.101-1.181-.208-.547-3.102 1.18zm11.601-3.877l.141.568 3.221-.8-.142-.568-3.22.8zm11.873-2.298l.055.583 3.304-.31-.055-.583-3.304.31zm11.787.223l3.294.396.069-.581-3.294-.396-.069.581zm11.402 2.4l3.118 1.134.2-.55-3.118-1.135-.2.551zm10.958 4.808l2.893 1.625.286-.51-2.893-1.625-.286.51zm10.38 6.434l2.703 1.925.339-.477-2.703-1.925-.339.477zm9.896 7.463l2.568 2.101.371-.453-2.568-2.101-.371.453zm9.57 8.086l2.486 2.197.388-.439-2.487-2.196-.387.438zm9.409 8.435l2.453 2.234.395-.433-2.453-2.234-.395.433zm9.415 8.567l2.466 2.22.391-.435-2.465-2.221-.392.436zm9.577 8.484l2.524 2.152.379-.445-2.524-2.152-.379.445zm9.983 8.224l2.635 2.018.355-.465-2.634-2.018-.356.465zm10.619 7.654l2.798 1.782.314-.494-2.799-1.782-.313.494zm11.536 6.62l3.013 1.391.245-.531-3.013-1.391-.245.531zm12.676 4.816l3.227.771.136-.569-3.227-.771-.136.569zm13.72 1.357l.021.585 3.315-.121-.021-.585-3.315.121zm13.552-1.981l.176.559 3.164-1.001-.177-.558-3.163 1zm12.406-4.913l.269.521 2.948-1.522-.268-.52-2.949 1.521zm11.377-6.498l.321.489 2.776-1.816-.32-.489-2.777 1.816zm10.633-7.356l.35.469 2.657-1.987-.351-.469-2.656 1.987zm10.175-7.861l.368.455 2.581-2.085-.368-.455-2.581 2.085zm9.867-8.103l.376.448 2.542-2.132-.376-.448-2.542 2.132zm9.717-8.188l.378.447 2.536-2.14-.378-.447-2.536 2.14zm9.698-8.127l.372.452 2.563-2.107-.372-.452-2.563 2.107zm9.776-7.886l.358.463 2.625-2.029-.358-.463-2.625 2.029zm10.015-7.467l.333.481 2.73-1.885-.333-.481-2.73 1.885zm10.362-6.714l.287.51 2.89-1.63-.287-.51-2.89 1.63zm10.81-5.423l.206.548 3.105-1.168-.206-.548-3.105 1.168zm11.205-3.202l.057.582 3.303-.326-.058-.582-3.302.326zm11.236.855l3.23.759.134-.569-3.23-.759-.134.569zm11.086 3.683l2.981 1.456.257-.526-2.981-1.455-.257.525zm10.58 5.898l2.765 1.836.323-.487-2.764-1.836-.324.487zm10.079 7.157l2.62 2.036.358-.462-2.619-2.037-.359.463zm9.773 7.856l2.543 2.132.375-.448-2.542-2.132-.376.448zm9.658 8.183l2.526 2.151.379-.446-2.526-2.15-.379.445zm9.764 8.228l2.57 2.099.37-.453-2.569-2.099-.371.453zm10.172 8.022l2.682 1.955.344-.474-2.681-1.954-.345.473zm10.895 7.381l2.873 1.659.293-.507-2.874-1.659-.292.507zm12.157 6.009l3.141 1.072.188-.554-3.14-1.072-.189.554zm13.936 2.462l.021.584 3.316-.119-.021-.584-3.316.119zm13.734-2.121l.203.549 3.111-1.153-.202-.549-3.112 1.153zm12.172-5.776l.313.495 2.807-1.771-.313-.495-2.807 1.771zm10.765-7.533l.366.456 2.589-2.075-.366-.456-2.589 2.075zm9.862-8.32l.393.435 2.464-2.222-.393-.435-2.464 2.222zm9.413-8.67l.401.426 2.416-2.274-.401-.426-2.416 2.274zm9.22-8.66l.396.43 2.439-2.25-.397-.43-2.438 2.25zm9.307-8.357l.376.448 2.541-2.135-.377-.447-2.54 2.134zm9.652-7.612l.328.484 2.745-1.865-.329-.483-2.744 1.864zm10.223-6.061l.222.541 3.07-1.26-.223-.542-3.069 1.261zm10.589-2.422l3.315.116.021-.585-3.315-.115-.021.584zm10.932 1.701l3.069 1.259.223-.541-3.07-1.259-.222.541zm10.227 5.435l2.679 1.958.345-.473-2.678-1.958-.346.473zm9.38 7.677l2.404 2.286.403-.424-2.404-2.286-.403.424zm8.776 8.799l2.266 2.424.427-.399-2.265-2.424-.428.399zm8.575 9.308l2.245 2.443.432-.396-2.246-2.442-.431.395zm8.828 9.392l2.349 2.344.413-.414-2.349-2.344-.413.414zm9.717 9.008l2.612 2.045.361-.461-2.613-2.045-.36.461zm11.6 7.564l3.061 1.282.226-.54-3.061-1.281-.226.539zm14.384 2.628l.057.582 3.303-.318-.057-.583-3.303.319zm13.598-3.656l.266.521 2.955-1.509-.267-.521-2.954 1.509zm11.399-6.924l.351.469 2.659-1.984-.35-.469-2.66 1.984zm10.153-8.143l.387.439 2.489-2.193-.387-.439-2.489 2.193zm9.485-8.635l.403.425 2.408-2.282-.402-.425-2.409 2.282zm9.2-8.787l.404.423 2.399-2.292-.404-.423-2.399 2.292zm9.15-8.613l.392.435 2.465-2.222-.392-.435-2.465 2.222zm9.395-8.068l.354.466 2.641-2.009-.354-.466-2.641 2.009zm9.829-6.602l.245.531 3.015-1.385-.244-.531-3.016 1.385zm10.099-2.637l-.073.581 3.292.414.073-.581-3.292-.414z" opacity=".8"/><path fill-rule="evenodd" clip-rule="evenodd" fill="#F94545" d="M235.716 0C249.289 11.68 268.65 44.334 289 44.334c22.952 0 52.204-41.001 83-41.001 22.535 0 56.967 40 83 40C492.91 43.333 528.216 5 572 5c44.127 0 96.773 70.334 145 70.334 54.753 0 101.543-73 159-73 50.795 0 92.111 82 143 82 45.226 0 96.114-79.001 140-79.001 39.648 0 82.479 73 120 73 36.38 0 78.529-70 112-70 35.385 0 51.895 54 83 54 29.674 0 65.16-59 90-59 24.354 0 48.165 35 67 35 22.888 0 41.381-30.769 54.705-38.333H235.716z"/><path fill-rule="evenodd" clip-rule="evenodd" fill="#0095DA" d="M210 2.334s.946-1.104 2.781-2.334H210v2.334zM236.477 0C250.011 6.991 268.424 38.333 291 38.333c22.952 0 46.204-35.999 77-35.999 22.535 0 60.967 47 87 47 37.91 0 77.549-44.667 121.333-44.667 44.128 0 94.44 58.666 142.667 58.666 54.753 0 92.543-60.999 150-60.999 50.795 0 99.111 83.999 150 83.999 45.226 0 107.114-83.999 151-83.999 39.648 0 71.479 59.5 109 59.5 36.38 0 71.529-59.5 105-59.5 35.385 0 58.895 62 90 62 29.674 0 69.16-62 94-62 24.354 0 44.165 31.999 63 31.999 26.096 0 46.479-31.999 60-31.999h19V0H236.477z"/><path fill-rule="evenodd" clip-rule="evenodd" fill="#FFF" d="M0 2.394c55.532.126 155.771.517 202 1.712 6.938.18 13.101-3.036 18.255-4.106H0v2.394zM227.176 0c4.343.479 7.428 1.071 8.922 1.797C249.667 8.392 268.214 34.333 291 34.333c22.952 0 50.204-30 81-30 22.535 0 56.967 40.001 83 40.001 37.91 0 69.216-40.001 113-40.001 44.127 0 100.773 60.001 149 60.001 54.753 0 101.543-60.001 159-60.001 50.795 0 92.111 70 143 70 45.226 0 100.114-70 144-70 39.648 0 78.479 60.001 116 60.001 36.38 0 71.529-60.001 105-60.001 35.385 0 58.895 50 90 50 29.674 0 67.16-50 92-50 24.354 0 46.165 30 65 30 26.096 0 46.479-30 60-30h229V0H227.176z"/></svg>