<svg xmlns="http://www.w3.org/2000/svg" viewBox="0 0 165 31"><path d="M132.82.96h-3.2c-.73 0-1.31.59-1.31 1.31v20.46c0 .16.13.29.29.29h3.14c.76 0 1.38-.62 1.38-1.38V1.25c0-.16-.13-.29-.3-.29zM22.86.96h-3.2c-.72 0-1.31.59-1.31 1.31v20.46c0 .16.13.29.29.29h3.14c.76 0 1.38-.62 1.38-1.38V1.25a.306.306 0 00-.3-.29zm-6.91 7.81a.29.29 0 00-.29-.29H3.1c-.72 0-1.31.59-1.31 1.31V13c0 .16.13.29.29.29h12.49c.45 0 1.38.01 1.38-.01V8.77zm62.75 5.99h4.34c.39 0 .71-.32.71-.71V9.72c0-.39-.32-.71-.71-.71H78.7c-.39 0-.71.32-.71.71v4.34c0 .39.32.7.71.7zm-62.76 2.07V13.3c-1.01 0-1.07.01-1.23.01h-2.14c-.72 0-.98-.01-1.72-.01v4.62c0 .16.01.29-.01.29h3.86H3.1c-.72 0-1.31.59-1.31 1.31v3.2c0 .16.13.29.29.29h12.49c.76 0 1.38-.62 1.38-1.38V18.2h-.01c.01-.65 0-.61 0-1.37zm76.23-8.35h-3.2c-.73 0-1.31.59-1.31 1.31v12.93c0 .06-.01.19-.01.25V18.5c0-.16-.01-.29.01-.29H70.71c-.72 0-1.31.59-1.31 1.31v3.2c0 .16.13.29.29.29h16.58c.43 0 1.38.06 1.38-.02v.02h3.44c.76 0 1.38-.62 1.38-1.38V8.77c0-.16-.13-.29-.3-.29zM99.15.96h-3.2c-.73 0-1.31.59-1.31 1.31v20.46c0 .16.13.29.29.29h3.14c.76 0 1.38-.62 1.38-1.38V1.25c0-.16-.14-.29-.3-.29zm14.78 23.26h-4.34c-.39 0-.71.32-.71.71v4.34c0 .39.32.71.71.71h4.34c.39 0 .71-.32.71-.71v-4.34c0-.39-.32-.71-.71-.71zm7.8 0h-4.34c-.39 0-.71.32-.71.71v4.34c0 .39.32.71.71.71h4.34c.39 0 .71-.32.71-.71v-4.34c0-.39-.32-.71-.71-.71zM51.79 10.39v7.86H39.75V8.53H27.08c-1.06 0-1.91.86-1.91 1.91v12.67h9.65v6.63c0 .16.13.29.29.29h3.14c.76 0 1.37-.62 1.37-1.37v-5.58h19.53c.05 0 .09 0 .14-.01h5.17a1.9 1.9 0 001.9-1.9V8.48H53.7c-1.06 0-1.91.85-1.91 1.91zm-16.97 7.13c0 .44-.36.8-.8.8h-4.14v-4.13c0-.44.36-.8.8-.8h4.14v4.13zm21.69-3.38c0-.44.35-.79.79-.79h4.14v4.13c0 .44-.36.8-.8.8h-.29c-.04-.01-.07-.02-.11-.02h-3.73v-4.12zm69.33-5.6h-3.2c-.72 0-1.31.59-1.31 1.31v8.36h-14.94v.01-9.39a.29.29 0 00-.29-.29h-3.2c-.72 0-1.31.59-1.31 1.31v19.78c0 .16.13.29.29.29h3.14c.76 0 1.38-.62 1.38-1.38v-5.53c.11-.02 1.84-.01 1.92-.01h16.45c.76 0 1.38-.62 1.38-1.38V8.83a.308.308 0 00-.31-.29zm-19.45 12.88c0 .03 0 .29-.01.59v-2.98c0 .19.01.37.01.5v1.89z" fill="#fff"/><path fill="#0089c8" d="M152.69 13.59v15.92l11.32-7.12V7.78z"/><path fill="#1aa5e5" d="M141 7.78v14.61l12 7.12V13.5z"/><path fill="#0db2ff" d="M152.75.71L141 7.7l11.68 6.99 11.38-6.99z"/></svg>